<?xml version="1.0" standalone="no"?>
<!DOCTYPE svg PUBLIC "-//W3C//DTD SVG 20010904//EN"
 "http://www.w3.org/TR/2001/REC-SVG-20010904/DTD/svg10.dtd">
<svg version="1.0" xmlns="http://www.w3.org/2000/svg"
 width="300.000000pt" height="300.000000pt" viewBox="0 0 300.000000 300.000000"
 preserveAspectRatio="xMidYMid meet">
<metadata>
Created by potrace 1.10, written by Peter Selinger 2001-2011
</metadata>
<g transform="translate(0.000000,300.000000) scale(0.100000,-0.100000)"
fill="#000000" stroke="none">
<path d="M1029 1986 c-28 -10 -49 -10 -85 -3 -134 27 -297 -87 -352 -246 -31
-91 -35 -142 -19 -223 38 -180 142 -289 390 -410 248 -121 625 -200 778 -164
64 15 134 49 178 86 41 34 91 120 91 157 0 26 2 27 55 27 72 0 111 17 157 68
49 54 218 392 218 435 0 52 -39 119 -85 144 -34 19 -55 23 -139 23 -90 0 -101
2 -128 25 -38 32 -89 33 -149 3 l-44 -23 -22 23 c-31 31 -92 30 -131 -3 l-30
-25 -261 0 -261 0 0 24 c0 34 -36 74 -78 86 -44 12 -38 12 -83 -4z m90 -29
c14 -6 34 -30 45 -52 19 -36 26 -41 66 -45 76 -8 484 -5 504 5 17 7 18 5 12
-16 -17 -54 -17 -66 -2 -82 21 -21 20 -34 -4 -42 -23 -7 -40 1 -40 19 0 19
-31 50 -64 64 -30 14 -44 8 -76 -31 -63 -79 -54 -74 -94 -54 -63 29 -160 14
-184 -29 -9 -16 -13 -15 -46 14 -23 20 -47 32 -66 32 -34 0 -39 11 -32 73 4
37 1 52 -13 67 -26 28 -80 21 -111 -15 l-23 -27 -27 21 c-21 16 -41 21 -90 21
-35 0 -64 -4 -64 -8 0 -5 -6 -9 -14 -9 -8 0 -27 -10 -43 -24 -80 -66 -113
-143 -113 -264 0 -72 3 -86 29 -126 16 -27 43 -52 64 -62 44 -21 132 -22 171
-2 26 14 31 14 52 0 33 -21 72 -19 103 8 15 12 27 25 28 30 5 24 12 29 12 8 2
-54 72 -81 113 -44 17 16 21 16 46 1 19 -12 51 -16 112 -16 76 0 86 3 103 24
23 30 30 30 61 -1 20 -20 35 -25 74 -25 32 0 54 5 62 15 12 14 15 14 30 0 23
-21 67 -19 97 5 23 18 55 29 40 13 -11 -11 27 -32 59 -33 53 0 79 47 89 166 3
32 38 85 55 82 22 -5 59 -154 48 -196 -5 -18 -13 -32 -19 -32 -5 0 -21 -11
-34 -25 -31 -30 -32 -74 -4 -106 20 -23 20 -24 2 -27 -10 -2 -26 -14 -34 -28
l-15 -25 -27 40 c-20 29 -35 41 -59 46 -18 3 -247 7 -508 10 -261 3 -488 6
-505 6 -16 1 -41 1 -55 0 -24 -2 -24 -2 -5 -13 21 -13 727 -28 922 -20 129 5
180 -7 189 -44 10 -38 -4 -72 -47 -119 -76 -82 -206 -110 -384 -81 -229 38
-468 118 -626 211 -69 40 -76 42 -82 18 -3 -14 -20 -2 -76 54 -39 40 -77 86
-82 103 -6 16 -15 30 -20 30 -5 0 -9 9 -9 21 0 11 -5 30 -12 42 -6 12 -13 54
-14 94 -6 157 82 302 220 364 36 16 64 19 136 18 49 -1 93 1 97 4 10 11 56 8
82 -6z m801 -90 l23 6 -19 -26 c-24 -33 -38 -34 -52 -2 -16 35 -15 37 6 26 10
-6 29 -7 42 -4z m-804 -14 c-3 -10 -10 -47 -16 -83 -6 -36 -14 -74 -17 -84 -5
-18 -4 -18 22 2 33 26 81 28 107 5 23 -20 23 -63 1 -193 l-16 -100 -39 0 -39
0 7 38 c3 20 13 70 21 111 15 79 10 98 -26 86 -30 -9 -47 -48 -65 -144 -9 -46
-16 -85 -16 -87 0 -2 -18 -4 -41 -4 -34 0 -40 3 -35 18 9 32 26 127 46 262 30
204 25 190 71 190 34 0 39 -3 35 -17z m722 -5 c7 -7 12 -24 12 -38 0 -31 -17
-50 -45 -50 -45 0 -59 46 -25 80 23 23 41 25 58 8z m226 4 c3 -5 3 -26 -1 -46
-4 -26 -9 -34 -16 -27 -21 21 -45 12 -56 -20 -18 -51 -15 -59 19 -52 32 6 35
-1 24 -44 -5 -17 -14 -23 -35 -23 -32 0 -31 2 -49 -115 -20 -131 -17 -125 -61
-125 -34 0 -39 3 -35 18 7 22 36 193 36 210 0 6 -7 12 -15 12 -29 0 -15 51 16
62 10 4 19 23 23 48 9 59 61 110 109 110 20 0 38 -4 41 -8z m-1119 -14 c24
-11 26 -16 20 -47 -9 -50 -13 -53 -38 -36 -28 20 -77 19 -106 -1 -66 -47 -84
-228 -27 -266 22 -15 78 -8 108 13 16 12 31 20 33 17 2 -2 -1 -25 -6 -50 -10
-46 -12 -48 -61 -63 -84 -25 -158 10 -187 88 -27 72 -4 202 49 275 51 71 146
102 215 70z m1398 -11 c40 -26 61 -64 61 -111 1 -72 -216 -477 -242 -452 -2 3
7 20 21 38 13 18 50 87 82 153 32 66 63 127 70 135 6 8 19 35 29 60 l17 45
-25 19 c-39 30 -79 30 -110 -1 -14 -14 -26 -32 -26 -39 0 -8 -7 -14 -15 -14
-8 0 -15 7 -15 15 0 44 -59 69 -122 52 -24 -6 -27 -5 -21 10 4 10 14 24 24 30
9 7 20 29 23 49 l7 36 108 -4 c81 -2 114 -8 134 -21z m-692 -87 l-9 -42 35 7
c31 5 35 4 29 -10 -3 -9 -6 -25 -6 -36 0 -15 -7 -19 -34 -19 -32 0 -34 -2 -39
-42 -3 -24 -9 -63 -13 -87 l-7 -44 31 6 c28 6 32 4 32 -14 0 -51 -44 -78 -94
-59 -38 14 -48 50 -36 128 6 37 14 77 17 90 4 17 1 22 -16 22 -23 0 -24 3 -15
38 4 12 12 22 20 22 16 0 34 31 34 59 0 16 8 20 38 23 20 2 38 2 40 2 1 -1 -2
-20 -7 -44z m-696 -22 c23 -3 27 -37 14 -97 -4 -20 -10 -48 -14 -64 -4 -22 -9
-26 -28 -22 -12 3 -40 -1 -62 -11 -38 -16 -40 -15 -57 6 -28 34 -17 142 18
181 19 21 29 21 129 7z m495 -18 c34 -18 43 -70 26 -160 -9 -45 -16 -95 -16
-111 0 -26 -3 -29 -35 -29 -24 0 -35 5 -35 14 0 11 -9 9 -39 -7 l-40 -22 -28
21 c-41 31 -44 91 -6 134 23 26 39 33 83 38 50 6 55 9 55 32 0 21 -5 26 -31
28 -19 2 -36 -3 -44 -12 -18 -23 -27 -20 -39 14 -9 29 -8 32 22 50 34 21 97
26 127 10z m380 2 c0 -7 -41 -255 -46 -279 -4 -19 -11 -23 -42 -23 l-38 0 27
153 c15 83 27 152 28 152 1 0 17 0 36 1 19 0 35 -1 35 -4z m325 -15 c5 -24 25
-161 25 -174 0 -4 19 36 43 91 l42 98 43 4 c23 2 42 2 42 -1 0 -3 -43 -90 -94
-194 -59 -116 -105 -197 -122 -210 -33 -26 -110 -30 -100 -5 3 9 6 26 6 40 0
20 4 23 28 18 25 -5 30 -2 47 36 l19 42 -32 131 c-18 73 -32 135 -32 138 0 4
18 7 40 7 33 1 41 -3 45 -21z m-459 -129 c-4 -22 -11 -48 -16 -57 -7 -13 -10
-12 -19 10 -15 41 2 88 33 89 5 0 6 -19 2 -42z"/>
<path d="M1742 1200 c-37 -22 -72 -75 -72 -106 0 -12 9 -32 21 -45 18 -21 20
-21 14 -4 -16 46 -17 57 -5 85 7 16 33 43 58 60 50 33 37 42 -16 10z"/>
<path d="M1354 1520 c-28 -11 -37 -35 -18 -50 19 -16 64 12 64 40 0 21 -12 24
-46 10z"/>
<path d="M2648 139 c15 -17 18 -18 28 -4 14 19 24 19 24 1 0 -9 7 -12 20 -9
16 4 20 0 20 -21 0 -28 -9 -33 -27 -15 -7 7 -12 6 -16 -5 -5 -13 3 -16 52 -16
77 0 88 5 101 46 14 41 23 43 37 7 l11 -28 1 30 c1 24 -4 31 -18 32 -11 1 -25
-5 -31 -13 -7 -7 -17 -11 -23 -7 -11 7 -35 10 -129 17 -65 4 -66 4 -50 -15z
m124 -22 c-2 -11 2 -15 13 -11 8 3 12 10 9 15 -3 5 2 9 10 9 10 0 16 -9 16
-23 0 -20 -5 -23 -32 -23 -29 1 -33 5 -36 30 -3 20 0 27 10 24 7 -3 12 -12 10
-21z"/>
</g>
</svg>
